<svg xmlns="http://www.w3.org/2000/svg" width="46" height="40" viewBox="0 0 46 40">
    <g fill="none" fill-rule="evenodd">
        <path fill="#758AFE" d="M45.28 7.133c.808.166.808 1.315 0 1.48l-.685.142-4.3.881V6.112l4.3.88.685.14z"/>
        <path fill="#536DFE" d="M42.701 17.228H25.576V8.705c0-4.708 3.835-8.525 8.563-8.525 4.729 0 8.563 3.817 8.563 8.525v8.523z"/>
        <path fill="#758AFE" d="M25.576 34.277V17.228h17.126c0 9.416-7.668 17.049-17.126 17.049"/>
        <path fill="#536DFE" d="M9.896 22.804h17.126v17.05c-9.46 0-17.126-7.634-17.126-17.05"/>
        <path fill="#BAC5FF" d="M25.837 8.704h-4.873v17.048h4.873c4.729 0 8.562-3.817 8.562-8.525 0-4.706-3.833-8.523-8.562-8.523M13.584 8.704v16.648a17.2 17.2 0 0 0 3.69.401V8.703h-3.69zM.148 8.704c0 6.785 3.983 12.643 9.747 15.389V8.703H.148z"/>
        <path fill="#758AFE" d="M17.273 8.704h3.69v17.049h-3.69zM9.896 8.704v15.389c1.163.553 2.4.977 3.69 1.259V8.704h-3.69z"/>
        <path fill="#FFF" d="M39.187 7.487a2.227 2.227 0 0 1-1.814 2.578 2.234 2.234 0 0 1-2.59-1.806 2.226 2.226 0 0 1 1.814-2.578 2.235 2.235 0 0 1 2.59 1.806"/>
        <path fill="#536DFE" d="M37.93 7.708a.958.958 0 1 1-1.889.331.96.96 0 0 1 1.889-.331"/>
        <path fill="#FFF" d="M38.028 7.033a.523.523 0 1 1-.606-.424c.285-.049.556.14.606.424"/>
        <path fill="#8E9DF3" d="M45.28 7.133c.808.166.808 1.315 0 1.48l-.685.142-4.3.881V6.112l4.3.88.685.14z"/>
        <path fill="#7081E3" d="M25.576 17.228V8.705c0-4.708 3.835-8.525 8.563-8.525 4.729 0 8.563 3.817 8.563 8.525v8.523H25.576z"/>
        <path fill="#8E9DF3" d="M25.576 34.277V17.228h17.126c0 9.416-7.668 17.049-17.126 17.049"/>
        <path fill="#7081E3" d="M9.896 22.804h17.126v17.05c-9.46 0-17.126-7.634-17.126-17.05"/>
        <path fill="#B6C1FF" d="M20.964 8.704v17.048h4.873c4.729 0 8.562-3.817 8.562-8.525 0-4.706-3.833-8.523-8.562-8.523h-4.873zM13.584 8.704v16.648a17.2 17.2 0 0 0 3.69.401V8.703h-3.69zM.148 8.704c0 6.785 3.983 12.643 9.747 15.389V8.703H.148z"/>
        <path fill="#8E9DF3" d="M17.273 8.704h3.69v17.049h-3.69zM9.896 8.704v15.389c1.163.553 2.4.977 3.69 1.259V8.704h-3.69z"/>
        <path fill="#FFF" d="M39.187 7.487a2.227 2.227 0 0 1-1.814 2.578 2.234 2.234 0 0 1-2.59-1.806 2.226 2.226 0 0 1 1.814-2.578 2.235 2.235 0 0 1 2.59 1.806"/>
        <path fill="#7081E3" d="M37.93 7.708a.958.958 0 1 1-1.889.331.96.96 0 0 1 1.889-.331"/>
        <path fill="#FFF" d="M38.028 7.033a.523.523 0 1 1-.606-.424c.285-.049.556.14.606.424"/>
    </g>
</svg>
