<?xml version="1.0" encoding="UTF-8"?>
<svg width="178px" height="62px" viewBox="0 0 178 62" version="1.1" xmlns="http://www.w3.org/2000/svg" xmlns:xlink="http://www.w3.org/1999/xlink">
    <!-- Generator: Sketch 60 (88103) - https://sketch.com -->
    <title>Artboard</title>
    <desc>Created with Sketch.</desc>
    <g id="Artboard" stroke="none" stroke-width="1" fill="none" fill-rule="evenodd">
        <g id="0a05a35" transform="translate(66.000000, 21.000000)">
            <polygon id="Clip-2" points="0 0.577296 0 17.376336 15.8352526 17.376336 15.8352526 0.577296 9.98607264e-21 0.577296"></polygon>
            <path d="M8.72914737,17.376336 C7.45367368,17.376336 6.27325263,17.164656 5.18788421,16.742016 C4.10177895,16.319376 3.17998947,15.738336 2.42251579,14.997456 C1.66577895,14.257296 1.07262105,13.371696 0.643042105,12.342096 C0.2142,11.310336 -0.000221052632,10.202256 -0.000221052632,9.017136 L-0.000221052632,8.971056 C-0.000221052632,7.831296 0.220094737,6.745536 0.660726316,5.715216 C1.10135789,4.684176 1.70188421,3.791376 2.46304211,3.035376 C3.22493684,2.280816 4.1482,1.681776 5.23430526,1.241136 C6.31967368,0.799056 7.47725263,0.577296 8.70630526,0.577296 C10.1431474,0.577296 11.3604105,0.758736 12.3573579,1.122336 C13.3543053,1.484496 14.3122,2.041776 15.2310421,2.797056 C15.2317789,2.797056 15.2317789,2.798496 15.2317789,2.799216 L12.9372526,5.516496 C12.2343053,4.949856 11.5593579,4.534416 10.9146211,4.270176 C10.2691474,4.006656 9.49398947,3.874176 8.58988421,3.874176 C7.26872632,3.874176 6.14209474,4.369536 5.21072632,5.358816 C4.27935789,6.348096 3.81367368,7.536816 3.81367368,8.926416 L3.81367368,8.971056 C3.81367368,10.460016 4.28525263,11.690496 5.22841053,12.663936 C6.17083158,13.638816 7.37704211,14.125536 8.84483158,14.125536 C10.2043053,14.125536 11.3515684,13.800816 12.2858842,13.152816 C12.2873579,13.152096 12.2880947,13.151376 12.2880947,13.149216 L12.2880947,10.828656 L8.61346316,10.828656 L8.61346316,7.747776 L15.8352526,7.747776 L15.8352526,14.792976 C15.8352526,14.792976 15.8352526,14.793696 15.8345158,14.794416 C13.7632526,16.516656 11.3950421,17.376336 8.72914737,17.376336" id="Fill-1" fill="#6B7DDF" fill-rule="nonzero"></path>
            <polygon id="Clip-5" points="18.3391895 17.377056 30.8249789 17.377056 30.8249789 4.42872 18.3391895 4.42872"></polygon>
            <path d="M21.8782421,9.90072 L27.3087684,9.90072 C27.3109789,9.90072 27.3117158,9.89928 27.3117158,9.89712 C27.2034,9.09144 26.9145579,8.4492 26.4481368,7.974 C25.9809789,7.49952 25.3760316,7.2612 24.6340316,7.2612 C23.9001368,7.2612 23.2937158,7.49664 22.8140316,7.96896 C22.3358211,8.44056 22.0226632,9.0828 21.8760316,9.89712 C21.8752947,9.89928 21.8767684,9.90072 21.8782421,9.90072 M24.9810842,17.3772 C23.0579263,17.3772 21.4692947,16.77672 20.2174,15.57576 C18.9655053,14.3748 18.3391895,12.8304 18.3391895,10.94184 L18.3391895,10.8972 C18.3391895,9.5256 18.6987684,8.28648 19.4164526,7.18056 C19.6736105,6.78528 19.9808737,6.42096 20.3286632,6.09984 C21.5363474,4.986 22.9709789,4.42872 24.6340316,4.42872 C25.6619263,4.42872 26.5800316,4.61376 27.3876105,4.98456 C28.1951895,5.35464 28.8443474,5.85648 29.3350842,6.4908 C29.8258211,7.12512 30.1964526,7.8408 30.4477158,8.63712 C30.6989789,9.43416 30.8249789,10.2816 30.8249789,11.18016 C30.8249789,11.3616 30.8095053,11.67192 30.7785579,12.10896 L21.9217158,12.10896 C22.0992947,12.9024 22.4603474,13.50648 23.0056105,13.92192 C23.5501368,14.33664 24.2287684,14.544 25.0400316,14.544 C25.6427684,14.544 26.1821368,14.44464 26.6574,14.24376 C27.1326632,14.04504 27.6204526,13.71816 28.1237158,13.26528 L30.1854,15.05232 C30.1861368,15.05376 30.1861368,15.05448 30.1854,15.05592 C28.9099263,16.6032 27.1761368,17.3772 24.9810842,17.3772" id="Fill-4" fill="#6B7DDF" fill-rule="nonzero"></path>
            <path d="M37.8034632,17.297568 C36.6134632,17.297568 35.6975684,17.015328 35.0557789,16.453008 C34.4139895,15.891408 34.0942,14.930208 34.0942,13.570128 L34.0942,7.680528 L32.5748316,7.680528 L32.5748316,4.655088 L34.0942,4.655088 L34.0942,1.484208 L37.7106211,1.484208 L37.7106211,4.655088 L40.7014632,4.655088 L40.7014632,7.680528 L37.7106211,7.680528 L37.7106211,12.992688 C37.7106211,13.400928 37.8034632,13.702608 37.9891474,13.898448 C38.1740947,14.095728 38.4673579,14.192928 38.8689368,14.192928 C39.5144105,14.192928 40.1060947,14.047488 40.6439895,13.758048 C40.6484105,13.755168 40.6550421,13.758768 40.6550421,13.763808 L40.6550421,16.582608 C40.6550421,16.583328 40.6550421,16.584048 40.6543053,16.584768 C39.8275684,17.059968 38.8770421,17.297568 37.8034632,17.297568" id="Fill-7" fill="#6B7DDF" fill-rule="nonzero"></path>
            <path d="M43.9701684,17.093664 L43.9701684,7.680384 L42.4633263,7.680384 L42.4633263,4.780224 L43.9701684,4.780224 L43.9701684,3.987504 C43.9701684,2.643264 44.3105895,1.638144 44.9906947,0.973584 C45.6545895,0.324864 46.6257474,0.000144 47.8997474,0.000144 C48.8804842,0.000144 49.7381684,0.113184 50.4720632,0.339264 C50.4728,0.339264 50.4735368,0.339984 50.4735368,0.341424 L50.4735368,3.262464 C49.9098526,3.066624 49.3609053,2.967984 48.8281684,2.967984 C47.9616421,2.967984 47.5291158,3.417264 47.5291158,4.316544 L47.5291158,4.803264 L50.4506947,4.803264 L50.4506947,7.680384 L47.5762737,7.680384 L47.5762737,17.093664 L43.9701684,17.093664 Z" id="Fill-9" fill="#6B7DDF" fill-rule="nonzero"></path>
            <path d="M58.4724737,14.329728 C59.4701579,14.329728 60.2696316,14.002848 60.8731053,13.349808 C61.4751053,12.696048 61.7764737,11.893248 61.7764737,10.942848 L61.7764737,10.896768 C61.7764737,9.953568 61.4618421,9.145728 60.8318421,8.472528 C60.2025789,7.801488 59.4008947,7.465248 58.4267895,7.465248 C57.4291053,7.465248 56.6296316,7.792128 56.0268947,8.445168 C55.4234211,9.097488 55.1220526,9.901008 55.1220526,10.852128 L55.1220526,10.896768 C55.1220526,11.841408 55.4374211,12.649248 56.0666842,13.321728 C56.6966842,13.992768 57.4991053,14.329728 58.4724737,14.329728 M58.4267895,17.376048 C57.1365789,17.376048 55.965,17.090208 54.9135263,16.515648 C53.8627895,15.941088 53.0412105,15.164208 52.4502632,14.182128 C51.8593158,13.200768 51.5631053,12.120768 51.5631053,10.942848 L51.5631053,10.896768 C51.5631053,10.014048 51.7392105,9.175968 52.0906842,8.381808 C52.4421579,7.589808 52.9225789,6.902928 53.5282632,6.321168 C54.1346842,5.738688 54.8671053,5.279328 55.7247895,4.939488 C56.5839474,4.598928 57.4991053,4.429728 58.4724737,4.429728 C59.7634211,4.429728 60.935,4.714848 61.9857368,5.284368 C63.0357368,5.854608 63.8580526,6.630768 64.4482632,7.612848 C65.0399474,8.594208 65.3354211,9.674208 65.3354211,10.852128 L65.3354211,10.896768 C65.3354211,12.075408 65.0377368,13.159008 64.4431053,14.148288 C63.8477368,15.137568 63.0202632,15.923088 61.9621579,16.504848 C60.9033158,17.085888 59.7243684,17.376048 58.4267895,17.376048" id="Fill-11" fill="#6B7DDF" fill-rule="nonzero"></path>
            <path d="M67.9319789,17.093664 L67.9319789,4.655664 L71.5491368,4.655664 L71.5491368,7.158384 C72.3522947,5.256864 73.7044,4.346784 75.6039789,4.428864 C75.6054526,4.428864 75.6061895,4.430304 75.6061895,4.431744 L75.6061895,8.110224 L75.4094526,8.110224 C74.1804,8.110224 73.2298737,8.476704 72.5571368,9.209664 C71.8851368,9.941184 71.5491368,11.037024 71.5491368,12.494304 L71.5491368,17.093664 L67.9319789,17.093664 Z" id="Fill-13" fill="#6B7DDF" fill-rule="nonzero"></path>
            <polygon id="Clip-16" points="97.2845263 17.093664 97.2845263 4.428864 77.8555474 4.428864 77.8555474 17.093664"></polygon>
            <path d="M77.8555474,17.093664 L77.8555474,4.655664 L81.3928274,4.655664 L81.3928274,6.423264 C81.8763301,5.803344 82.4030671,5.316624 82.9737588,4.960944 C83.5444506,4.605984 84.2376393,4.428864 85.0540455,4.428864 C85.8625255,4.428864 86.5679639,4.598784 87.1681991,4.938624 C87.7691548,5.279184 88.231761,5.765904 88.5574588,6.399504 C89.6750634,5.085504 91.0398238,4.428864 92.6488574,4.428864 C93.9725452,4.428864 95.0036815,4.820544 95.7444278,5.601744 C96.4851742,6.383664 96.8555474,7.513344 96.8555474,8.994384 L96.8555474,17.093664 L93.3182673,17.093664 L93.3182673,10.161504 C93.3182673,9.330624 93.141007,8.699904 92.7857658,8.268624 C92.4305246,7.838784 91.9203608,7.623504 91.2552743,7.623504 C90.5829821,7.623504 90.0591275,7.840224 89.6851514,8.275104 C89.3104548,8.708544 89.1238271,9.337824 89.1238271,10.161504 L89.1238271,17.093664 L85.5865471,17.093664 L85.5865471,10.161504 C85.5865471,9.330624 85.4085662,8.699904 85.0540455,8.268624 C84.6988043,7.838784 84.1886405,7.623504 83.523554,7.623504 C82.8512619,7.623504 82.3281278,7.840224 81.9534312,8.275104 C81.5794551,8.708544 81.3928274,9.337824 81.3928274,10.161504 L81.3928274,17.093664 L77.8555474,17.093664 Z" id="Fill-15" fill="#6B7DDF" fill-rule="nonzero"></path>
        </g>
        <g id="095d0b3" transform="translate(12.000000, 12.000000)" fill-rule="nonzero">
            <path d="M40.752,6.4197 C41.4792,6.5691 41.4792,7.6032 40.752,7.7517 L40.1355,7.8795 L36.2655,8.6724 L36.2655,5.5008 L40.1355,6.2928 L40.752,6.4188 L40.752,6.4197 Z" id="Path" fill="#758AFE"></path>
            <path d="M38.4309,15.5052 L23.0184,15.5052 L23.0184,7.8345 C23.0184,3.5973 26.4699,0.162 30.7251,0.162 C34.9812,0.162 38.4318,3.5973 38.4318,7.8345 L38.4318,15.5052 L38.4309,15.5052 Z" id="Path" fill="#536DFE"></path>
            <path d="M23.0184,30.8493 L23.0184,15.5052 L38.4318,15.5052 C38.4318,23.9796 31.5306,30.8493 23.0184,30.8493" id="Path" fill="#758AFE"></path>
            <path d="M8.9064,20.5236 L24.3198,20.5236 L24.3198,35.8686 C15.8058,35.8686 8.9064,28.998 8.9064,20.5236" id="Path" fill="#536DFE"></path>
            <path d="M23.2533,7.8336 L18.8676,7.8336 L18.8676,23.1768 L23.2533,23.1768 C27.5094,23.1768 30.9591,19.7415 30.9591,15.5043 C30.9591,11.2689 27.5094,7.8336 23.2533,7.8336 M12.2256,7.8336 L12.2256,22.8168 C13.3163409,23.0565417 14.4298226,23.177546 15.5466,23.1777 L15.5466,7.8327 L12.2256,7.8327 L12.2256,7.8336 Z M0.1332,7.8336 C0.1332,13.9401 3.7179,19.2123 8.9055,21.6837 L8.9055,7.8327 L0.1332,7.8327 L0.1332,7.8336 Z" id="Shape" fill="#BAC5FF"></path>
            <path d="M15.5457,7.8336 L18.8667,7.8336 L18.8667,23.1777 L15.5457,23.1777 L15.5457,7.8336 Z M8.9064,7.8336 L8.9064,21.6837 C9.9531,22.1814 11.0664,22.563 12.2274,22.8168 L12.2274,7.8336 L8.9064,7.8336 Z" id="Shape" fill="#758AFE"></path>
            <path d="M35.2683,6.7383 C35.359972,7.26253549 35.2393883,7.80170688 34.9331329,8.23694737 C34.6268776,8.67218785 34.1600975,8.9677595 33.6357,9.0585 C32.5433224,9.25265413 31.5001428,8.52524779 31.3047,7.4331 C31.2127793,6.90883337 31.3332634,6.36953793 31.639561,5.93423729 C31.9458587,5.49893664 32.4127892,5.20341695 32.9373,5.1129 C34.0295623,4.91926976 35.0724055,5.6464415 35.2683,6.7383" id="Path" fill="#FFFFFF"></path>
            <path d="M34.137,6.9372 C34.1902147,7.24089361 34.0773685,7.5499078 33.8409695,7.74783989 C33.6045705,7.94577199 33.2805332,8.00255141 32.9909195,7.89678989 C32.7013057,7.79102838 32.4901147,7.53879361 32.4369,7.2351 C32.3792494,6.77769055 32.6908864,6.35559611 33.1449958,6.27602479 C33.5991053,6.19645346 34.0356919,6.48744042 34.137,6.9372" id="Path" fill="#536DFE"></path>
            <path d="M34.2252,6.3297 C34.2583354,6.51717829 34.1752716,6.70615615 34.0147424,6.80851069 C33.8542133,6.91086523 33.6478335,6.90643867 33.4918407,6.79729518 C33.3358478,6.6881517 33.2609634,6.49578607 33.3021068,6.30990096 C33.3432503,6.12401585 33.4923189,5.9812196 33.6798,5.9481 C33.9363,5.904 34.1802,6.0741 34.2252,6.3297" id="Path" fill="#FFFFFF"></path>
            <path d="M40.752,6.4197 C41.4792,6.5691 41.4792,7.6032 40.752,7.7517 L40.1355,7.8795 L36.2655,8.6724 L36.2655,5.5008 L40.1355,6.2928 L40.752,6.4188 L40.752,6.4197 Z" id="Path" fill="#8E9DF3"></path>
            <path d="M23.0184,15.5052 L23.0184,7.8345 C23.0184,3.5973 26.4699,0.162 30.7251,0.162 C34.9812,0.162 38.4318,3.5973 38.4318,7.8345 L38.4318,15.5052 L23.0184,15.5052 Z" id="Path" fill="#7081E3"></path>
            <path d="M23.0184,30.8493 L23.0184,15.5052 L38.4318,15.5052 C38.4318,23.9796 31.5306,30.8493 23.0184,30.8493" id="Path" fill="#8E9DF3"></path>
            <path d="M8.9064,20.5236 L24.3198,20.5236 L24.3198,35.8686 C15.8058,35.8686 8.9064,28.998 8.9064,20.5236" id="Path" fill="#7081E3"></path>
            <path d="M18.8676,7.8336 L18.8676,23.1768 L23.2533,23.1768 C27.5094,23.1768 30.9591,19.7415 30.9591,15.5043 C30.9591,11.2689 27.5094,7.8336 23.2533,7.8336 L18.8676,7.8336 L18.8676,7.8336 Z M12.2256,7.8336 L12.2256,22.8168 C13.3163409,23.0565417 14.4298226,23.177546 15.5466,23.1777 L15.5466,7.8327 L12.2256,7.8327 L12.2256,7.8336 Z M0.1332,7.8336 C0.1332,13.9401 3.7179,19.2123 8.9055,21.6837 L8.9055,7.8327 L0.1332,7.8327 L0.1332,7.8336 Z" id="Shape" fill="#B6C1FF"></path>
            <path d="M15.5457,7.8336 L18.8667,7.8336 L18.8667,23.1777 L15.5457,23.1777 L15.5457,7.8336 Z M8.9064,7.8336 L8.9064,21.6837 C9.9531,22.1814 11.0664,22.563 12.2274,22.8168 L12.2274,7.8336 L8.9064,7.8336 Z" id="Shape" fill="#8E9DF3"></path>
            <path d="M35.2683,6.7383 C35.359972,7.26253549 35.2393883,7.80170688 34.9331329,8.23694737 C34.6268776,8.67218785 34.1600975,8.9677595 33.6357,9.0585 C32.5433224,9.25265413 31.5001428,8.52524779 31.3047,7.4331 C31.2127793,6.90883337 31.3332634,6.36953793 31.639561,5.93423729 C31.9458587,5.49893664 32.4127892,5.20341695 32.9373,5.1129 C34.0295623,4.91926976 35.0724055,5.6464415 35.2683,6.7383" id="Path" fill="#FFFFFF"></path>
            <path d="M34.137,6.9372 C34.1902147,7.24089361 34.0773685,7.5499078 33.8409695,7.74783989 C33.6045705,7.94577199 33.2805332,8.00255141 32.9909195,7.89678989 C32.7013057,7.79102838 32.4901147,7.53879361 32.4369,7.2351 C32.3792494,6.77769055 32.6908864,6.35559611 33.1449958,6.27602479 C33.5991053,6.19645346 34.0356919,6.48744042 34.137,6.9372" id="Path" fill="#7081E3"></path>
            <path d="M34.2252,6.3297 C34.2583354,6.51717829 34.1752716,6.70615615 34.0147424,6.80851069 C33.8542133,6.91086523 33.6478335,6.90643867 33.4918407,6.79729518 C33.3358478,6.6881517 33.2609634,6.49578607 33.3021068,6.30990096 C33.3432503,6.12401585 33.4923189,5.9812196 33.6798,5.9481 C33.9363,5.904 34.1802,6.0741 34.2252,6.3297" id="Path" fill="#FFFFFF"></path>
        </g>
    </g>
</svg>